<?xml version="1.0" encoding="UTF-8"?>
<svg version="1.1" xmlns="http://www.w3.org/2000/svg" width="500" height="500">
<path d="M0 0 C165 0 330 0 500 0 C500 49.5 500 99 500 150 C335 150 170 150 0 150 C0 100.5 0 51 0 0 Z " fill="#00FE59" transform="translate(0,197)"/>
<path d="M0 0 C8.91 0 17.82 0 27 0 C33.5064447 11.902033 39.99556446 23.81291646 46.4375 35.75 C47.3049585 37.35367432 47.3049585 37.35367432 48.18994141 38.98974609 C48.74472168 40.01922363 49.29950195 41.04870117 49.87109375 42.109375 C50.35505615 43.00624023 50.83901855 43.90310547 51.33764648 44.82714844 C53.62125407 49.18575678 55.7994396 53.59887921 58 58 C49.75 58 41.5 58 33 58 C29 51 29 51 29 48 C24.81749913 47.92020605 20.64005079 47.89966852 16.45727539 47.93286133 C15.03632062 47.93593454 13.61523578 47.92311265 12.19458008 47.89379883 C10.14423658 47.85430009 8.10115587 47.87289709 6.05078125 47.90234375 C4.82012939 47.89710693 3.58947754 47.89187012 2.3215332 47.88647461 C-2.34339489 49.03503122 -2.34339489 49.03503122 -6 58 C-14.25 58 -22.5 58 -31 58 C-21.34683179 38.30753685 -10.83930278 19.06222214 0 0 Z " fill="#000100" transform="translate(413,243)"/>
<path d="M0 0 C8.91 0 17.82 0 27 0 C33.5064447 11.902033 39.99556446 23.81291646 46.4375 35.75 C47.3049585 37.35367432 47.3049585 37.35367432 48.18994141 38.98974609 C48.74472168 40.01922363 49.29950195 41.04870117 49.87109375 42.109375 C50.35505615 43.00624023 50.83901855 43.90310547 51.33764648 44.82714844 C53.62125407 49.18575678 55.7994396 53.59887921 58 58 C49.75 58 41.5 58 33 58 C29 51 29 51 29 48 C24.81749913 47.92020605 20.64005079 47.89966852 16.45727539 47.93286133 C15.03632062 47.93593454 13.61523578 47.92311265 12.19458008 47.89379883 C10.14423658 47.85430009 8.10115587 47.87289709 6.05078125 47.90234375 C4.82012939 47.89710693 3.58947754 47.89187012 2.3215332 47.88647461 C-2.34339489 49.03503122 -2.34339489 49.03503122 -6 58 C-14.25 58 -22.5 58 -31 58 C-21.34683179 38.30753685 -10.83930278 19.06222214 0 0 Z " fill="#000100" transform="translate(267,243)"/>
<path d="M0 0 C8.25 0 16.5 0 25 0 C31.59093886 12.7424818 37.2946981 25.84107224 43 39 C47.80298097 28.93282465 52.31828039 18.76051238 56.71044922 8.50756836 C57.12311035 7.54858643 57.53577148 6.58960449 57.9609375 5.6015625 C58.33009277 4.73869629 58.69924805 3.87583008 59.07958984 2.98681641 C60 1 60 1 61 0 C62.85369611 -0.08737645 64.71067541 -0.10698153 66.56640625 -0.09765625 C67.69111328 -0.09443359 68.81582031 -0.09121094 69.97460938 -0.08789062 C71.15861328 -0.07951172 72.34261719 -0.07113281 73.5625 -0.0625 C74.75037109 -0.05798828 75.93824219 -0.05347656 77.16210938 -0.04882812 C80.10812226 -0.03699675 83.05403681 -0.02051287 86 0 C79.76543453 13.38292404 73.21266948 26.57088063 66.4375 39.6875 C65.5146926 41.47967286 64.59216542 43.27199004 63.66992188 45.06445312 C61.45032554 49.37823362 59.22508534 53.689031 57 58 C48.09 58 39.18 58 30 58 C22.52271619 45.4381632 16.1004791 32.37468715 9.62402344 19.28027344 C7.47046427 14.93042062 5.29905937 10.58963 3.125 6.25 C2.09375 4.1875 1.0625 2.125 0 0 Z " fill="#000200" transform="translate(310,243)"/>
<path d="M0 0 C7.26 0 14.52 0 22 0 C22.06924689 4.96269402 22.12886389 9.92368062 22.16479492 14.88647461 C22.17978874 16.57110302 22.20019073 18.25569303 22.22631836 19.94018555 C22.56508663 42.35867399 22.56508663 42.35867399 14.90234375 50.43359375 C3.08450814 60.16450151 -14.59214154 59.89416843 -29.08984375 58.7578125 C-37.63258192 57.68035003 -45.93743615 54.62021635 -52 48.25 C-56.9145394 40.26387347 -57 33.59076193 -57 24 C-49.74 24 -42.48 24 -35 24 C-34.67 26.97 -34.34 29.94 -34 33 C-31.38017689 37.56043282 -28.96267332 38.64329794 -24 40 C-16.84367819 40.67611875 -10.24289524 40.80002319 -4 37 C-0.5231459 33.55251035 -0.53066166 30.04118238 -0.48828125 25.390625 C-0.47033005 24.66381531 -0.45237885 23.93700562 -0.43388367 23.18817139 C-0.37986759 20.87550593 -0.3459144 18.56304579 -0.3125 16.25 C-0.27931907 14.6783569 -0.24482868 13.10674086 -0.20898438 11.53515625 C-0.12168847 7.6900761 -0.06155174 3.84592273 0 0 Z " fill="#000100" transform="translate(217,243)"/>
<path d="M0 0 C1.43655854 -0.08131463 2.8744483 -0.13933559 4.3125 -0.1875 C5.51326172 -0.23970703 5.51326172 -0.23970703 6.73828125 -0.29296875 C9 0 9 0 10.78125 1.03125 C12.67312263 4.08735194 12.31396309 7.21462893 12.1875 10.6875 C12.17396484 11.38939453 12.16042969 12.09128906 12.14648438 12.81445312 C12.11120182 14.54329829 12.05739583 16.27174765 12 18 C9.85423363 18.02685938 7.70837355 18.04633088 5.5625 18.0625 C4.36753906 18.07410156 3.17257813 18.08570313 1.94140625 18.09765625 C-1 18 -1 18 -2 17 C-2.3125 13.625 -2.3125 13.625 -2 10 C-0.375 8.0625 -0.375 8.0625 2 7 C5.25 6.8125 5.25 6.8125 8 7 C7.67 6.01 7.34 5.02 7 4 C4.36 3.67 1.72 3.34 -1 3 C-0.67 2.01 -0.34 1.02 0 0 Z " fill="#C83728" transform="translate(65,304)"/>
<path d="M0 0 C7.21311475 -0.36065574 7.21311475 -0.36065574 10.25 1.03125 C12.86888792 3.97749891 12.43108758 6.9577923 12.25 10.6875 C12.23195313 11.38939453 12.21390625 12.09128906 12.1953125 12.81445312 C12.14826213 14.54355436 12.07651873 16.27195205 12 18 C9.85423363 18.02685938 7.70837355 18.04633088 5.5625 18.0625 C4.36753906 18.07410156 3.17257813 18.08570313 1.94140625 18.09765625 C-1 18 -1 18 -2 17 C-2.375 13.625 -2.375 13.625 -2 10 C0.64755663 7.65502127 2.2936993 7.04708671 5.8125 6.8125 C6.534375 6.874375 7.25625 6.93625 8 7 C7.67 6.01 7.34 5.02 7 4 C4.36 3.67 1.72 3.34 -1 3 C-0.67 2.01 -0.34 1.02 0 0 Z " fill="#CB3327" transform="translate(98,304)"/>
<path d="M0 0 C2.84323425 2.46802739 4.15880824 5.08454454 5.6875 8.5 C6.34298828 9.93859375 6.34298828 9.93859375 7.01171875 11.40625 C8 14 8 14 8 17 C3.05 17 -1.9 17 -7 17 C-6.10465713 12.52328567 -4.99789901 9.67678319 -2.9375 5.6875 C-2.38964844 4.61886719 -1.84179688 3.55023438 -1.27734375 2.44921875 C-0.64505859 1.23685547 -0.64505859 1.23685547 0 0 Z " fill="#00EF53" transform="translate(426,260)"/>
<path d="M0 0 C2.84323425 2.46802739 4.15880824 5.08454454 5.6875 8.5 C6.34298828 9.93859375 6.34298828 9.93859375 7.01171875 11.40625 C8 14 8 14 8 17 C3.05 17 -1.9 17 -7 17 C-6.10465713 12.52328567 -4.99789901 9.67678319 -2.9375 5.6875 C-2.38964844 4.61886719 -1.84179688 3.55023438 -1.27734375 2.44921875 C-0.64505859 1.23685547 -0.64505859 1.23685547 0 0 Z " fill="#00EF53" transform="translate(280,260)"/>
<path d="M0 0 C0.66 0.33 1.32 0.66 2 1 C2.64931586 6.84384273 2.5023336 10.00656375 -1.125 14.75 C-4.14013955 18.26153447 -7.36910678 21.14715533 -11 24 C-12.58873246 27.17746491 -12.41026221 30.54012202 -12 34 C-10.66169042 36.4595774 -10.66169042 36.4595774 -9 38 C-9.33 38.66 -9.66 39.32 -10 40 C-13.32952532 36.57484862 -16.371992 33.37019928 -18.375 29 C-17.53648354 22.29186833 -11.16135858 18.12343413 -6.1875 14.125 C-1.89694417 10.46197444 -0.7954406 7.43422915 -0.12109375 1.90625 C-0.08113281 1.2771875 -0.04117188 0.648125 0 0 Z " fill="#C73728" transform="translate(90,216)"/>
<path d="M0 0 C1.32 0 2.64 0 4 0 C5.32 3.96 6.64 7.92 8 12 C8.99 8.04 9.98 4.08 11 0 C12.32 0 13.64 0 15 0 C14.42934122 6.41991126 12.32655091 12.01589463 10 18 C8.35 18 6.7 18 5 18 C2.89603589 12.06682122 1.24028238 6.17222879 0 0 Z " fill="#CB3427" transform="translate(79,304)"/>
<path d="M0 0 C-3 2 -3 2 -6 2 C-6 2.66 -6 3.32 -6 4 C1.29476567 4.96287826 8.45855669 5.1832319 15.8125 5.1875 C17.46088867 5.20586914 17.46088867 5.20586914 19.14257812 5.22460938 C26.6189526 5.2378263 33.66967219 4.46142873 41 3 C41 2.34 41 1.68 41 1 C41.66 1 42.32 1 43 1 C42.375 2.875 42.375 2.875 41 5 C32.51568741 8.83814141 22.66276678 8.15482064 13.5625 8.125 C12.38623047 8.12886719 11.20996094 8.13273437 9.99804688 8.13671875 C-6.76404062 8.11797969 -6.76404062 8.11797969 -11 6 C-11 5.01 -11 4.02 -11 3 C-7.14243493 0.84694043 -4.44870215 -0.39253254 0 0 Z " fill="#097DAB" transform="translate(65,281)"/>
<path d="M0 0 C1.32 0 2.64 0 4 0 C4.11638426 4.06225821 4.18731373 8.1240863 4.25 12.1875 C4.30027344 13.91323242 4.30027344 13.91323242 4.3515625 15.67382812 C4.36445312 16.78564453 4.37734375 17.89746094 4.390625 19.04296875 C4.41157227 20.06414795 4.43251953 21.08532715 4.45410156 22.13745117 C3.8776782 25.77108769 2.60122895 27.44134195 0 30 C-0.99 30 -1.98 30 -3 30 C-2.125 26.125 -2.125 26.125 -1 25 C-0.84213692 23.14825294 -0.74892644 21.2909089 -0.68359375 19.43359375 C-0.62075195 17.7465332 -0.62075195 17.7465332 -0.55664062 16.02539062 C-0.51732422 14.84138672 -0.47800781 13.65738281 -0.4375 12.4375 C-0.39431641 11.24962891 -0.35113281 10.06175781 -0.30664062 8.83789062 C-0.20016454 5.89205216 -0.09815159 2.9461257 0 0 Z " fill="#D42B24" transform="translate(56,298)"/>
<path d="M0 0 C0.66 0.33 1.32 0.66 2 1 C1.36191406 1.44730469 0.72382812 1.89460937 0.06640625 2.35546875 C-1.17302734 3.26232422 -1.17302734 3.26232422 -2.4375 4.1875 C-3.26121094 4.77917969 -4.08492187 5.37085938 -4.93359375 5.98046875 C-7.35466117 8.34661592 -7.82661477 9.65149775 -8 13 C-7.0126546 14.67419438 -6.01187895 16.34051852 -5 18 C-4.56096641 21.58544099 -4.55879534 23.30142595 -6.5 26.375 C-6.995 26.91125 -7.49 27.4475 -8 28 C-8.66 27.67 -9.32 27.34 -10 27 C-9.9071875 25.63875 -9.9071875 25.63875 -9.8125 24.25 C-9.68411072 21.02414301 -9.68411072 21.02414301 -11.5 19.125 C-13.36413751 16.48413852 -13.66647225 14.23852996 -13.546875 11.02734375 C-12.18135572 5.96516871 -6.92140649 3.53893587 -2.6875 1.0625 C-1.800625 0.711875 -0.91375 0.36125 0 0 Z " fill="#D02E26" transform="translate(96,232)"/>
<path d="M0 0 C-1.95216435 1.95216435 -3.53199953 2.84826645 -6 4 C-2.70835283 4.02952761 0.58325938 4.04697292 3.875 4.0625 C4.7928125 4.07087891 5.710625 4.07925781 6.65625 4.08789062 C12.8335647 4.10964173 18.86721835 3.73930108 25 3 C24 5 24 5 20.734375 6.109375 C14.95380696 7.42431242 9.14912912 7.29120463 3.25 7.25 C2.12722656 7.25773437 1.00445312 7.26546875 -0.15234375 7.2734375 C-1.23128906 7.27085937 -2.31023437 7.26828125 -3.421875 7.265625 C-4.39737305 7.26336914 -5.37287109 7.26111328 -6.37792969 7.25878906 C-9.05720249 6.99435432 -10.70489459 6.36674816 -13 5 C-9.83196342 0.24794513 -5.50516885 -0.32383346 0 0 Z " fill="#0981A9" transform="translate(73,258)"/>
<path d="M0 0 C0.125 3.375 0.125 3.375 0 7 C-0.66 7.66 -1.32 8.32 -2 9 C-1.67 9.66 -1.34 10.32 -1 11 C-7.15234375 11.09765625 -7.15234375 11.09765625 -9 11 C-10 10 -10 10 -10.375 6.625 C-10 3 -10 3 -7.8125 1.0625 C-4.96187163 -0.01440405 -3.01439098 -0.25837637 0 0 Z " fill="#BF3F2A" transform="translate(106,311)"/>
<path d="M0 0 C0.66 0 1.32 0 2 0 C2 0.66 2 1.32 2 2 C2.89307861 1.94670532 2.89307861 1.94670532 3.80419922 1.89233398 C6.49416774 1.73501206 9.18453917 1.58615438 11.875 1.4375 C12.81214844 1.38142578 13.74929687 1.32535156 14.71484375 1.26757812 C15.61074219 1.21923828 16.50664063 1.17089844 17.4296875 1.12109375 C18.25710449 1.0739624 19.08452148 1.02683105 19.93701172 0.97827148 C22 1 22 1 24 2 C24 2.66 24 3.32 24 4 C17.42160129 6.02412268 10.87252146 6.88157862 4 6 C1.13671875 4.48046875 1.13671875 4.48046875 -1 3 C-0.67 2.01 -0.34 1.02 0 0 Z " fill="#097AAD" transform="translate(70,276)"/>
<path d="M0 0 C0.66 0 1.32 0 2 0 C2 0.99 2 1.98 2 3 C9.92 2.67 17.84 2.34 26 2 C26.33 2.66 26.66 3.32 27 4 C21.70077557 6.17492599 17.00308027 6.30195151 11.375 6.25 C10.529375 6.25773437 9.68375 6.26546875 8.8125 6.2734375 C7.99523437 6.27085937 7.17796875 6.26828125 6.3359375 6.265625 C5.59907715 6.26336914 4.8622168 6.26111328 4.10302734 6.25878906 C1.71663007 5.96512977 0.07779341 5.18177801 -2 4 C-1.34 2.68 -0.68 1.36 0 0 Z " fill="#097FAA" transform="translate(68,267)"/>
<path d="M0 0 C0 0.33 0 0.66 0 1 C-1.65 1.33 -3.3 1.66 -5 2 C-3.35 2.33 -1.7 2.66 0 3 C-0.52268466 5.76276177 -1.10869587 8.3260876 -2 11 C-4.33294775 11.04241723 -6.66702567 11.04092937 -9 11 C-10 10 -10 10 -10.3125 6.625 C-10 3 -10 3 -8.375 1.0625 C-5.43969547 -0.25066255 -3.18136394 -0.21691118 0 0 Z " fill="#C03E2A" transform="translate(73,311)"/>
<path d="M0 0 C0.495 0.99 0.495 0.99 1 2 C-0.32633063 2.6600951 -1.66160815 3.30221603 -3 3.9375 C-4.11375 4.47697266 -4.11375 4.47697266 -5.25 5.02734375 C-12.75330034 7.68120992 -20.95774515 7.18294652 -28.8125 7.1875 C-30.50922852 7.20586914 -30.50922852 7.20586914 -32.24023438 7.22460938 C-33.86348633 7.22750977 -33.86348633 7.22750977 -35.51953125 7.23046875 C-36.99063354 7.23663208 -36.99063354 7.23663208 -38.49145508 7.24291992 C-41 7 -41 7 -44 5 C-43.11852295 4.98541748 -42.2370459 4.97083496 -41.32885742 4.95581055 C-38.0053724 4.89413943 -34.68263282 4.81988167 -31.35961914 4.73754883 C-29.93133851 4.70463914 -28.50293841 4.67650589 -27.07446289 4.65356445 C-17.78998791 4.50050576 -8.48678544 4.24339272 0 0 Z " fill="#088EA0" transform="translate(110,286)"/>
<path d="M0 0 C6.75 0.75 6.75 0.75 9 3 C8.92246387 7.1869509 8.66866707 9.29418476 5.75 12.375 C3.05742902 13.96606467 1.08517061 14.64740907 -2 15 C-0.824375 14.1028125 -0.824375 14.1028125 0.375 13.1875 C3.14574323 11.08914751 3.14574323 11.08914751 5 8 C4.6878236 5.35367713 4.6878236 5.35367713 4 3 C2.35 2.67 0.7 2.34 -1 2 C-0.67 1.34 -0.34 0.68 0 0 Z " fill="#097DAB" transform="translate(102,257)"/>
<path d="M0 0 C-1.95216435 1.95216435 -3.53199953 2.84826645 -6 4 C-6 4.66 -6 5.32 -6 6 C-4.35 6 -2.7 6 -1 6 C-1 6.33 -1 6.66 -1 7 C-9.57142857 7.28571429 -9.57142857 7.28571429 -13 5 C-9.83196342 0.24794513 -5.50516885 -0.32383346 0 0 Z " fill="#088CA2" transform="translate(73,258)"/>
<path d="M0 0 C1.4540625 0.0309375 1.4540625 0.0309375 2.9375 0.0625 C2.6075 1.7125 2.2775 3.3625 1.9375 5.0625 C0.2875 5.0625 -1.3625 5.0625 -3.0625 5.0625 C-3.625 3.125 -3.625 3.125 -4.0625 1.0625 C-3.0625 0.0625 -3.0625 0.0625 0 0 Z " fill="#11ED55" transform="translate(70.0625,313.9375)"/>
<path d="M0 0 C1.2065625 0.0309375 1.2065625 0.0309375 2.4375 0.0625 C2.1075 1.7125 1.7775 3.3625 1.4375 5.0625 C-0.2125 5.0625 -1.8625 5.0625 -3.5625 5.0625 C-3.5625 0.08689024 -3.5625 0.08689024 0 0 Z " fill="#09F557" transform="translate(103.5625,313.9375)"/>
<path d="M0 0 C0.66 0 1.32 0 2 0 C1.375 1.875 1.375 1.875 0 4 C-4.34906192 6.07568864 -7.3534107 6.10633079 -12 5 C-12 4.67 -12 4.34 -12 4 C-8.04 3.34 -4.08 2.68 0 2 C0 1.34 0 0.68 0 0 Z " fill="#0890A0" transform="translate(106,282)"/>
<path d="M0 0 C-2 2 -2 2 -5.625 2.125 C-6.73875 2.08375 -7.8525 2.0425 -9 2 C-8 0 -8 0 -6.1875 -0.6875 C-3.81180233 -1.02688538 -2.26664171 -0.72856341 0 0 Z " fill="#0A74B1" transform="translate(95,270)"/>
<path d="M0 0 C2.31 0.33 4.62 0.66 7 1 C7 1.99 7 2.98 7 4 C4.36 3.34 1.72 2.68 -1 2 C-0.67 1.34 -0.34 0.68 0 0 Z " fill="#088BA2" transform="translate(102,257)"/>
</svg>
